<?xml version="1.0" encoding="UTF-8" standalone="no"?>
<!-- Created with Inkscape (http://www.inkscape.org/) -->

<svg
   width="1920"
   height="1080"
   viewBox="0 0 1920 1080"
   version="1.1"
   id="svg1"
   inkscape:version="1.3.2 (091e20e, 2023-11-25, custom)"
   sodipodi:docname="dessin.svg"
   inkscape:export-filename="right.svg"
   inkscape:export-xdpi="48.888889"
   inkscape:export-ydpi="48.888889"
   xmlns:inkscape="http://www.inkscape.org/namespaces/inkscape"
   xmlns:sodipodi="http://sodipodi.sourceforge.net/DTD/sodipodi-0.dtd"
   xmlns="http://www.w3.org/2000/svg"
   xmlns:svg="http://www.w3.org/2000/svg">
  <sodipodi:namedview
     id="namedview1"
     pagecolor="#505050"
     bordercolor="#eeeeee"
     borderopacity="1"
     inkscape:showpageshadow="0"
     inkscape:pageopacity="0"
     inkscape:pagecheckerboard="0"
     inkscape:deskcolor="#505050"
     inkscape:document-units="px"
     showguides="true"
     inkscape:lockguides="false"
     inkscape:zoom="0.35355339"
     inkscape:cx="0"
     inkscape:cy="182.43355"
     inkscape:window-width="1920"
     inkscape:window-height="1017"
     inkscape:window-x="1912"
     inkscape:window-y="-8"
     inkscape:window-maximized="1"
     inkscape:current-layer="layer9" />
  <defs
     id="defs1">
    <inkscape:perspective
       sodipodi:type="inkscape:persp3d"
       inkscape:vp_x="268.76698 : 802.93867 : 1"
       inkscape:vp_y="0 : 1000 : 0"
       inkscape:vp_z="2163.199 : 540 : 1"
       inkscape:persp3d-origin="981.11849 : 360 : 1"
       id="perspective1" />
  </defs>
  <g
     inkscape:groupmode="layer"
     id="layer13"
     inkscape:label="structure">
    <rect
       style="fill:#000000;stroke-width:0.707107"
       id="rect41"
       width="50"
       height="500"
       x="225"
       y="-500"
       ry="0"
       rx="0"
       transform="translate(0,500)"
       inkscape:label="pilier" />
    <rect
       style="fill:#000000"
       id="rect43"
       width="500"
       height="50"
       x="275"
       y="-500"
       transform="translate(0,500)"
       inkscape:label="poutre horizontal" />
    <rect
       style="fill:#000000;stroke-width:0.707107"
       id="rect44"
       width="25"
       height="100"
       x="750"
       y="-450"
       transform="translate(0,500)"
       inkscape:label="corde" />
    <rect
       style="fill:#000000;stroke-width:0.707107"
       id="rect42"
       width="500"
       height="50"
       x="0"
       y="0"
       transform="translate(0,500)"
       inkscape:label="base" />
  </g>
  <g
     inkscape:groupmode="layer"
     id="layer12"
     inkscape:label="corps">
    <g
       inkscape:groupmode="layer"
       id="layer9"
       inkscape:label="bras"
       transform="translate(0,500)">
      <rect
         style="fill:#000000;fill-opacity:1;stroke-width:0.67932"
         id="rect47"
         width="25.120899"
         height="165.79793"
         x="348.064"
         y="-722.83063"
         ry="12.56045"
         rx="12.56045"
         transform="rotate(45.000001)"
         inkscape:label="gauche" />
      <rect
         style="fill:#000000;fill-opacity:1;stroke-width:0.677686"
         id="rect48"
         width="25.060509"
         height="165.39935"
         x="-731.07733"
         y="357.21167"
         ry="12.530254"
         rx="12.530254"
         transform="matrix(-0.70539868,0.70881076,0.70539868,0.70881076,0,0)"
         inkscape:label="droite" />
    </g>
    <g
       inkscape:groupmode="layer"
       id="layer10"
       inkscape:label="jambe"
       transform="translate(0,500)">
      <rect
         style="fill:#000000;fill-opacity:1;stroke-width:0.67932"
         id="rect56"
         width="25.120899"
         height="165.79793"
         x="443.38815"
         y="-627.50647"
         ry="12.56045"
         rx="12.56045"
         transform="rotate(45.000001,-4.3040427e-6,0)"
         inkscape:label="gauche" />
      <rect
         style="fill:#000000;fill-opacity:1;stroke-width:0.677686"
         id="rect55"
         width="25.060509"
         height="165.39935"
         x="-635.9823"
         y="452.30667"
         ry="12.530254"
         rx="12.530254"
         transform="matrix(-0.70539868,0.70881076,0.70539868,0.70881076,0,0)"
         inkscape:label="droite" />
    </g>
    <rect
       style="fill:#000000;fill-opacity:1;stroke-width:0.67605"
       id="rect46"
       width="25"
       height="165"
       x="750"
       y="-267.5"
       transform="translate(0,500)"
       inkscape:label="tronc" />
    <path
       id="path44"
       style="fill:#000000"
       d="m 762.5,-355 a 50,50 0 0 0 -50,50 50,50 0 0 0 50,50 50,50 0 0 0 50,-50 50,50 0 0 0 -50,-50 z m 0,25 a 25,25 0 0 1 25,25 25,25 0 0 1 -25,25 25,25 0 0 1 -25,-25 25,25 0 0 1 25,-25 z"
       sodipodi:insensitive="true"
       transform="translate(0,500)"
       inkscape:label="tête" />
  </g>
</svg>
